<svg width="23" height="23" viewBox="0 0 23 23" fill="none" xmlns="http://www.w3.org/2000/svg">
<path d="M11.5 22C17.299 22 22 17.299 22 11.5C22 5.70101 17.299 1 11.5 1C5.70101 1 1 5.70101 1 11.5C1 17.299 5.70101 22 11.5 22Z" stroke="#44475C" stroke-width="2" stroke-miterlimit="10"/>
<path d="M14.6499 8.35C14.6499 7.51456 14.318 6.71336 13.7273 6.12262C13.1365 5.53188 12.3353 5.2 11.4999 5.2C10.6644 5.2 9.86344 5.53188 9.27271 6.12262C8.68197 6.71336 8.34985 7.51456 8.34985 8.35V8.35V10.45C8.34985 11.2854 8.68197 12.0867 9.27271 12.6774C9.86344 13.2681 10.6644 13.6 11.4999 13.6C12.3353 13.6 13.1365 13.2681 13.7273 12.6774C14.318 12.0867 14.6499 11.2854 14.6499 10.45V8.35Z" stroke="#44475C" stroke-width="2" stroke-miterlimit="10"/>
<path d="M4.63318 19.8685C5.49714 18.8964 6.55364 18.1144 7.73575 17.5721C8.91787 17.0299 10.1996 16.7392 11.5 16.7185C12.7432 16.7334 13.9714 16.9955 15.1124 17.4894C16.2535 17.9833 17.2848 18.6992 18.1465 19.5955" stroke="#44475C" stroke-width="2" stroke-miterlimit="10"/>
</svg>
