<svg width="20" height="20" viewBox="0 0 20 20" fill="none" xmlns="http://www.w3.org/2000/svg">
<path d="M1 14.2466V19.0066H5.76001L18.4199 6.34656C18.6059 6.16081 18.7534 5.94031 18.854 5.69751C18.9547 5.45471 19.0066 5.19435 19.0066 4.93152C19.0066 4.66869 18.9547 4.40845 18.854 4.16565C18.7534 3.92285 18.6059 3.70235 18.4199 3.5166L16.49 1.58655C16.3042 1.40059 16.0836 1.25311 15.8408 1.15247C15.598 1.05182 15.3378 1 15.075 1C14.8121 1 14.5519 1.05182 14.3091 1.15247C14.0663 1.25311 13.8457 1.40059 13.6599 1.58655L1 14.2466Z" stroke="#44475C" stroke-width="2" stroke-linejoin="round"/>
</svg>
