<svg width="22" height="20" viewBox="0 0 22 20" fill="none" xmlns="http://www.w3.org/2000/svg">
<path d="M11 19C11 19 1 15.14 1 6.5C1 5.04131 1.57939 3.64241 2.61084 2.61096C3.64229 1.57951 5.04131 1 6.5 1C7.384 0.999705 8.25474 1.21323 9.03833 1.62244C9.82192 2.03164 10.4951 2.62436 11 3.34998C11.5055 2.62497 12.1785 2.03279 12.9619 1.62366C13.7454 1.21452 14.6162 1.00055 15.5 1C16.9587 1 18.3575 1.57951 19.3889 2.61096C20.4204 3.64241 21 5.04131 21 6.5C21 15.14 11 19 11 19Z" fill="#F53838" stroke="#44475C" stroke-opacity="0.5" stroke-width="2" stroke-linejoin="round"/>
</svg>
