<svg width="23" height="23" viewBox="0 0 23 23" fill="none" xmlns="http://www.w3.org/2000/svg">
<path d="M20.1164 5.87497L12.8833 1.50002C12.4361 1.22956 11.8923 1.08333 11.3333 1.08333C10.7744 1.08333 10.2302 1.22956 9.78308 1.50002L2.54994 5.87497C2.06868 6.16605 1.67804 6.54349 1.40901 6.97742C1.13997 7.41134 1 7.88985 1 8.37499V19.8333C1 20.3859 1.27205 20.9157 1.75652 21.3064C2.24099 21.6971 2.89819 21.9167 3.58333 21.9167H19.0833C19.7685 21.9167 20.4254 21.6971 20.9098 21.3064C21.3943 20.9157 21.6667 20.3859 21.6667 19.8333V8.37499C21.6667 7.88985 21.5264 7.41134 21.2573 6.97742C20.9883 6.54349 20.5977 6.16605 20.1164 5.87497V5.87497Z" stroke="#44475C" stroke-width="2" stroke-miterlimit="10"/>
<path d="M11.4998 12.5417V18.7917" stroke="#44475C" stroke-width="2" stroke-miterlimit="10"/>
</svg>
