<svg width="18" height="22" viewBox="0 0 18 22" fill="none" xmlns="http://www.w3.org/2000/svg">
<path d="M3 1H15C15.5304 1 16.039 1.21074 16.4141 1.58582C16.7891 1.96089 17 2.46957 17 3V20C16.9992 20.1978 16.9397 20.3909 16.8291 20.5549C16.7185 20.7189 16.5617 20.8463 16.3787 20.9213C16.1956 20.9962 15.9946 21.0152 15.8008 20.9758C15.607 20.9364 15.4291 20.8405 15.2898 20.7001L9 16.41L2.70996 20.7001C2.57069 20.8405 2.39279 20.9364 2.19897 20.9758C2.00516 21.0152 1.80413 20.9962 1.62109 20.9213C1.43806 20.8463 1.28122 20.7189 1.17065 20.5549C1.06009 20.3909 1.00083 20.1978 1 20V3C1 2.46957 1.21062 1.96089 1.58569 1.58582C1.96077 1.21074 2.46957 1 3 1Z" stroke="#44475C" stroke-width="2" stroke-linejoin="round"/>
</svg>
