<svg width="12" height="17" viewBox="0 0 12 17" fill="none" xmlns="http://www.w3.org/2000/svg">
<path d="M6 16C6 16 1 13.237 1 7.56327C1 6.07156 1.5267 4.64096 2.46439 3.58616C3.40207 2.53137 4.67392 1.93878 6 1.93878C7.32608 1.93878 8.59778 2.53137 9.53546 3.58616C10.4731 4.64096 11 6.07156 11 7.56327C11 13.237 6 16 6 16Z" stroke="#44475C" stroke-width="2" stroke-linejoin="round"/>
<path d="M5.99998 9.67253C7.03551 9.67253 7.87498 8.72821 7.87498 7.56334C7.87498 6.39847 7.03551 5.45416 5.99998 5.45416C4.96445 5.45416 4.12498 6.39847 4.12498 7.56334C4.12498 8.72821 4.96445 9.67253 5.99998 9.67253Z" stroke="#44475C" stroke-width="2" stroke-miterlimit="10"/>
</svg>
